<!-- This is a placeholder SVG for UPI QR Code -->
<svg width="200" height="200" xmlns="http://www.w3.org/2000/svg">
  <rect width="100%" height="100%" fill="#f8f9fa" stroke="#dee2e6" stroke-width="2"/>
  
  <!-- QR Code pattern simulation -->
  <g fill="#212529">
    <!-- Corner squares -->
    <rect x="20" y="20" width="40" height="40"/>
    <rect x="140" y="20" width="40" height="40"/>
    <rect x="20" y="140" width="40" height="40"/>
    
    <!-- Inner corner squares -->
    <rect x="28" y="28" width="24" height="24" fill="#f8f9fa"/>
    <rect x="148" y="28" width="24" height="24" fill="#f8f9fa"/>
    <rect x="28" y="148" width="24" height="24" fill="#f8f9fa"/>
    
    <!-- Center squares -->
    <rect x="36" y="36" width="8" height="8"/>
    <rect x="156" y="36" width="8" height="8"/>
    <rect x="36" y="156" width="8" height="8"/>
    
    <!-- Random pattern blocks -->
    <rect x="80" y="20" width="8" height="8"/>
    <rect x="100" y="20" width="8" height="8"/>
    <rect x="120" y="20" width="8" height="8"/>
    
    <rect x="20" y="80" width="8" height="8"/>
    <rect x="20" y="100" width="8" height="8"/>
    <rect x="20" y="120" width="8" height="8"/>
    
    <rect x="60" y="60" width="8" height="8"/>
    <rect x="80" y="60" width="8" height="8"/>
    <rect x="100" y="60" width="8" height="8"/>
    <rect x="120" y="60" width="8" height="8"/>
    <rect x="140" y="60" width="8" height="8"/>
    
    <rect x="60" y="80" width="8" height="8"/>
    <rect x="140" y="80" width="8" height="8"/>
    
    <rect x="60" y="100" width="8" height="8"/>
    <rect x="80" y="100" width="8" height="8"/>
    <rect x="100" y="100" width="8" height="8"/>
    <rect x="120" y="100" width="8" height="8"/>
    <rect x="140" y="100" width="8" height="8"/>
    
    <rect x="60" y="120" width="8" height="8"/>
    <rect x="80" y="120" width="8" height="8"/>
    <rect x="120" y="120" width="8" height="8"/>
    <rect x="140" y="120" width="8" height="8"/>
    
    <rect x="60" y="140" width="8" height="8"/>
    <rect x="80" y="140" width="8" height="8"/>
    <rect x="100" y="140" width="8" height="8"/>
    <rect x="120" y="140" width="8" height="8"/>
    <rect x="140" y="140" width="8" height="8"/>
    <rect x="160" y="140" width="8" height="8"/>
    
    <rect x="80" y="160" width="8" height="8"/>
    <rect x="100" y="160" width="8" height="8"/>
    <rect x="120" y="160" width="8" height="8"/>
    <rect x="140" y="160" width="8" height="8"/>
    <rect x="160" y="160" width="8" height="8"/>
  </g>
  
  <!-- UPI Text -->
  <text x="100" y="190" text-anchor="middle" font-family="Arial, sans-serif" font-size="12" fill="#6c757d">
    UPI QR Code - 9490507045-4@ybl
  </text>
</svg>
